Coordinates
version=1
nRows=8
nColumns=60
inDegrees=yes

Units are S.I. units (second, meters, Newtons, ...)
If the header above contains a line with 'inDegrees', this indicates whether rotational values are in degrees (yes) or radians (no).

endheader
time	pelvis_tilt	pelvis_list	pelvis_rotation	pelvis_tx	pelvis_ty	pelvis_tz	hip_flexion_r	hip_adduction_r	hip_rotation_r	knee_angle_r_beta	knee_angle_r	ankle_angle_r	subtalar_angle_r	mtp_angle_r	hip_flexion_l	hip_adduction_l	hip_rotation_l	knee_angle_l_beta	knee_angle_l	ankle_angle_l	subtalar_angle_l	mtp_angle_l	L5_S1_Flex_Ext	L5_S1_Lat_Bending	L5_S1_axial_rotation	L4_L5_Flex_Ext	L4_L5_Lat_Bending	L4_L5_axial_rotation	L3_L4_Flex_Ext	L3_L4_Lat_Bending	L3_L4_axial_rotation	L2_L3_Flex_Ext	L2_L3_Lat_Bending	L2_L3_axial_rotation	L1_L2_Flex_Ext	L1_L2_Lat_Bending	L1_L2_axial_rotation	L1_T12_Flex_Ext	L1_T12_Lat_Bending	L1_T12_axial_rotation	Abs_r3	Abs_r2	Abs_r1	Abs_t1	Abs_t2	arm_flex_r	arm_add_r	arm_rot_r	elbow_flex_r	pro_sup_r	wrist_flex_r	wrist_dev_r	arm_flex_l	arm_add_l	arm_rot_l	elbow_flex_l	pro_sup_l	wrist_flex_l	wrist_dev_l
      6.00000000	      0.77640932	     25.82368455	     91.06641806	      0.39906090	      0.94769863	      0.18049223	    -28.37378293	     -4.11874987	     -4.24324194	      0.15362454	     -8.80203770	     15.01899394	      0.00000000	      0.00000000	    -26.90026522	     -6.84385069	     -6.54265369	      0.18435931	    -10.56301042	     17.41857363	      0.00000000	      0.00000000	     -5.52496148	      0.22096493	     -0.16509241	    -10.26040597	      0.29388336	     -0.17541069	     -9.07695922	      0.53725413	     -0.17541069	     -6.31447848	      0.53725413	     -0.14445586	     -5.13047923	      0.45059169	     -0.13413759	     -3.15696299	      0.34227468	     -0.12381931	    -39.46424736	      2.49959948	     -0.91819448	      0.00000000	      0.00000000	     13.74271024	    -11.17425021	     12.63984497	     16.78458398	    108.03449079	     13.09014565	     -1.84080158	     17.29961856	    -11.03407493	     34.08548017	     17.26253574	     97.47355448	     16.67128596	     -7.04924753
      6.01000000	      0.78428020	     25.82671963	     91.04641885	      0.39906203	      0.94769880	      0.18046880	    -28.35299558	     -4.12473796	     -4.23863482	      0.15430270	     -8.84089367	     15.02338433	      0.00000000	      0.00000000	    -26.90985890	     -6.84175968	     -6.55858319	      0.18427831	    -10.55836968	     17.43293441	      0.00000000	      0.00000000	     -5.52322922	      0.22127592	     -0.16483762	    -10.25718898	      0.29429698	     -0.17513997	     -9.07411328	      0.53801028	     -0.17513997	     -6.31249867	      0.53801028	     -0.14423292	     -5.12887065	      0.45122586	     -0.13393057	     -3.15597318	      0.34275641	     -0.12362822	    -39.45187399	      2.50311750	     -0.91677739	      0.00000000	      0.00000000	     13.80528525	    -11.13871383	     12.87134421	     16.67873256	    107.38675347	     13.11927840	     -1.78816241	     17.33695303	    -11.02947834	     34.26928738	     17.29274692	     97.24446549	     16.70320169	     -7.04578213
      6.02000000	      0.75109323	     25.83465643	     91.06134251	      0.39902066	      0.94768214	      0.18046436	    -28.34535707	     -4.16430181	     -4.26972006	      0.15503492	     -8.88284660	     15.06630527	      0.00000000	      0.00000000	    -26.89258407	     -6.80888796	     -6.52076576	      0.18495566	    -10.59717844	     17.42308485	      0.00000000	      0.00000000	     -5.52480186	      0.21789009	     -0.16972989	    -10.26010954	      0.28979382	     -0.18033801	     -9.07669698	      0.52977797	     -0.18033801	     -6.31429605	      0.52977797	     -0.14851366	     -5.13033101	      0.44432148	     -0.13790554	     -3.15687178	      0.33751175	     -0.12729742	    -39.46310722	      2.46481630	     -0.94398674	      0.00000000	      0.00000000	     13.81089813	    -11.20735406	     13.72976223	     16.79958179	    106.79591341	     13.01537490	     -1.80162617	     17.38145337	    -11.10380948	     34.78476422	     17.42043392	     97.03610957	     16.69670999	     -7.08985985
      6.03000000	      0.81094174	     25.80284827	     91.02116438	      0.39901331	      0.94762359	      0.18038946	    -28.27201746	     -4.12647478	     -4.26125427	      0.15623643	     -8.95168828	     15.07055686	      0.00000000	      0.00000000	    -26.87857911	     -6.85519068	     -6.57799420	      0.18457778	    -10.57552803	     17.49042229	      0.00000000	      0.00000000	     -5.51777909	      0.22340285	     -0.17084749	    -10.24706755	      0.29712579	     -0.18152546	     -9.06515926	      0.54318169	     -0.18152546	     -6.30626972	      0.54318169	     -0.14949156	     -5.12380966	      0.45556309	     -0.13881359	     -3.15285897	      0.34605101	     -0.12813562	    -39.41294425	      2.52717772	     -0.95020249	      0.00000000	      0.00000000	     13.82305164	    -11.16934780	     13.22208555	     16.87284259	    108.09319600	     13.13959670	     -1.79664545	     17.35009393	    -11.03168468	     34.31261880	     17.43085601	     97.55334886	     16.67152906	     -7.07533317
      6.04000000	      0.81955726	     25.80454139	     91.01025880	      0.39898715	      0.94759199	      0.18034704	    -28.26862905	     -4.12819667	     -4.27808918	      0.15640567	     -8.96138460	     15.07561347	      0.00000000	      0.00000000	    -26.86809745	     -6.85600762	     -6.55734194	      0.18497852	    -10.59848822	     17.48306442	      0.00000000	      0.00000000	     -5.51683109	      0.22528992	     -0.15392160	    -10.24530702	      0.29963560	     -0.16354170	     -9.06360180	      0.54776992	     -0.16354170	     -6.30518625	      0.54776992	     -0.13468140	     -5.12292935	      0.45941121	     -0.12506130	     -3.15231728	      0.34897409	     -0.11544120	    -39.40617279	      2.54852467	     -0.85606576	      0.00000000	      0.00000000	     13.79033347	    -11.16675757	     13.30921786	     16.84817078	    107.15755204	     13.15254809	     -1.74692193	     17.40148618	    -10.97727732	     34.34905778	     17.50459333	     97.13764717	     16.67912006	     -7.08103110
      6.05000000	      0.82187308	     25.77922304	     91.01787342	      0.39894654	      0.94754049	      0.18036131	    -28.19414981	     -4.12995341	     -4.25797722	      0.15809756	     -9.05832287	     15.07969209	      0.00000000	      0.00000000	    -26.80271287	     -6.86025192	     -6.51058377	      0.18610455	    -10.66300509	     17.52981749	      0.00000000	      0.00000000	     -5.51702167	      0.22516031	     -0.17522350	    -10.24566094	      0.29946321	     -0.18617497	     -9.06391490	      0.54745478	     -0.18617497	     -6.30540407	      0.54745478	     -0.15332057	     -5.12310632	      0.45914691	     -0.14236910	     -3.15242618	      0.34877332	     -0.13141763	    -39.40753408	      2.54705848	     -0.97454056	      0.00000000	      0.00000000	     13.84549449	    -11.07073409	     12.52255010	     16.93973992	    109.02206623	     13.29969857	     -1.80518624	     17.35619783	    -11.00265551	     34.09525169	     17.56509837	     97.87533905	     16.55435150	     -7.12218759
      6.06000000	      0.83581072	     25.77468411	     91.01989267	      0.39890466	      0.94749907	      0.18030145	    -28.19566693	     -4.11496215	     -4.25222730	      0.15800666	     -9.05311474	     15.11594956	      0.00000000	      0.00000000	    -26.78312469	     -6.87769402	     -6.56053252	      0.18646383	    -10.68359027	     17.52465751	      0.00000000	      0.00000000	     -5.51250127	      0.22699606	     -0.17571182	    -10.23726612	      0.30190476	     -0.18669381	     -9.05648834	      0.55191823	     -0.18669381	     -6.30023771	      0.55191823	     -0.15374784	     -5.11890868	      0.46289037	     -0.14276586	     -3.14984323	      0.35161690	     -0.13178387	    -39.37524535	      2.56782487	     -0.97725644	      0.00000000	      0.00000000	     13.83994211	    -11.10860984	     13.06151728	     17.00297821	    108.18351803	     13.31353637	     -1.71050924	     17.38084262	    -10.99464864	     34.34477184	     17.59532118	     97.54705629	     16.62438377	     -7.11536770
      6.07000000	      0.84862140	     25.77254685	     91.01631177	      0.39882649	      0.94747361	      0.18028309	    -28.17999093	     -4.10690948	     -4.21631423	      0.15847579	     -9.07999404	     15.12238642	      0.00000000	      0.00000000	    -26.76764721	     -6.88524574	     -6.58345566	      0.18678633	    -10.70206821	     17.54614372	      0.00000000	      0.00000000	     -5.51075319	      0.22905901	     -0.18210708	    -10.23401975	      0.30464848	     -0.19348878	     -9.05361641	      0.55693407	     -0.19348878	     -6.29823982	      0.55693407	     -0.15934370	     -5.11728541	      0.46709713	     -0.14796200	     -3.14884437	      0.35481240	     -0.13658031	    -39.36275895	      2.59116129	     -1.01282496	      0.00000000	      0.00000000	     13.89486007	    -11.09743166	     13.18642787	     16.96671828	    107.89662637	     13.37373013	     -1.67824090	     17.39733214	    -10.96917268	     34.43327975	     17.58153064	     97.44977922	     16.65699289	     -7.11334411
